#!OML:ASF F:\VICON\USERDATA\INSTALL\rory3\rory3.ASF
:FULLY-SPECIFIED
:DEGREES
75
root -1.173230099041969 16.90527409106092 41.594444404734006 0.5272821521348758 2.005620671768253 1.1575792896985344
lfemur -14.402158942476177 0.43569377673878273 -27.528738218054734
ltibia 43.382586240521256
lfoot -9.874118229942724 -8.303865323297774
ltoes 8.864785293646458
rfemur -15.578015179233041 -0.5714825564108597 19.020835927486267
rtibia 85.25630307071975
rfoot 11.32510415642315 -8.868117296612052
rtoes 11.778054160878938
lowerback 15.776032209299178 1.2887057908359274 -2.060096901443589
upperback 0.14630173195139617 1.5706359448956788 -0.20724318070330705
thorax -9.298322244728787 0.7859664486734599 0.6660254450650491
lowerneck -18.034095679846164 -3.205238376616831 -3.1965844932107395
upperneck 16.340028171432426 -3.64124183718248 2.441588263071692
head 8.327416822866802 -1.6205584395978294 1.0805284532771062
lclavicle -6.518032578280678e-16 -4.863566152250961e-15
lhumerus -51.263064152414934 -13.928434215531666 97.5869089700592
lradius 106.26612401840222
lwrist 33.40836045551501
lhand -34.90941937828528 1.691370274780842
lfingers 7.125019999999998
lthumb -7.583851024241168 31.7933788378002
rclavicle -6.48696922019228e-16 -4.8624627568435546e-15
rhumerus -48.50221609247445 9.693081577656933 -99.88697871371058
rradius 123.78719746224192
rwrist -12.196042210657383
rhand -18.50323345282204 32.89760526146354
rfingers 7.125019999999998
rthumb 7.623007683453097 3.1886914947322103
76
root -1.1598604411123545 16.830187012644835 42.513367170862324 1.086870414915702 1.4575804396237628 1.2342296242835646
lfemur -11.883570601358098 -0.28697351458407955 -27.415693252060034
ltibia 45.379965482749796
lfoot -11.396352072444628 -5.506458942880588
ltoes 5.4114460691847075
rfemur -19.872360341072145 -0.8834005703978902 18.297214023734455
rtibia 89.80839554603509
rfoot 9.936003293637585 -8.216744804984383
rtoes 14.752935886502334
lowerback 15.693555708355607 1.2439469022569911 -2.084452809282924
upperback 0.2778389114398364 1.445956795194641 -0.335639227937494
thorax -9.169132321807636 0.7373454443554899 0.6219848161712381
lowerneck -18.412316134217736 -3.13844811190369 -3.113741305317978
upperneck 16.30679394771866 -3.5665893320800004 2.2714794522102446
head 8.245556094889896 -1.5909433384763907 1.033852204243636
lclavicle -6.525213004809953e-16 -4.864022250263841e-15
lhumerus -48.133755385318175 -14.990294516877459 97.5105860984165
lradius 105.22971304580108
lwrist 35.66192177843982
lhand -35.55621375825025 2.274664914360654
lfingers 7.125019999999998
lthumb -7.833407842057485 32.78513956564145
rclavicle -6.436633223014577e-16 -4.858880787721868e-15
rhumerus -49.11692679471518 9.10176799882966 -99.80739640715225
rradius 123.95324017092412
rwrist -12.877982318994512
rhand -18.36344226666264 32.72215054637605
rfingers 7.125019999999998
rthumb 7.896903653908083 2.722405412786123
77
root -1.1628982392179696 16.799454846165023 43.37539359164312 2.244174076556062 -0.023413337469750495 0.10144903869329114
lfemur -10.22755442128437 -0.02287044731486021 -25.875307334081164
ltibia 47.14228171237052
lfoot -11.416522842322907 -4.007496676010036
ltoes 1.3441442876600487
rfemur -24.83312782911495 0.2656077310502625 19.84500733795909
rtibia 92.42780082357183
rfoot 8.78178929073495 -8.487758089387835
rtoes 13.231598078069135
lowerback 14.945226089067704 1.253830382358547 -1.3542052625521879
upperback 0.19179360386305377 1.5969990971688992 0.016266191597868795
thorax -8.738811856127096 0.7932143642335617 0.49247702420683415
lowerneck -18.979396592181303 -3.012582557644489 -3.052860289357497
upperneck 16.367500442486836 -3.443870511932186 2.1204397098999532
head 8.198827878732097 -1.5554232539326671 0.9907084818787629
lclavicle -6.52003013265552e-16 -4.863639599571814e-15
lhumerus -45.233572859191035 -15.45853635946117 97.14583875585274
lradius 105.01664988356869
lwrist 34.19996667255284
lhand -34.17076266818876 1.8101200132124697
lfingers 7.125019999999998
lthumb -7.462967247359722 32.193009396145555
rclavicle -6.431026396893192e-16 -4.858567317097646e-15
rhumerus -49.746327867369786 9.03542266913007 -99.67642255704246
rradius 124.0420582786705
rwrist -13.986959147974005
rhand -18.223895274386017 32.85893354995276
rfingers 7.125019999999998
rthumb 8.356194588756532 2.951325822680163
78
root -1.1606111507067467 16.89165496433897 44.574842259848666 2.3955945090796718 -0.8190720073066045 -0.3934464046524486
lfemur -7.673504088055875 0.3901471556745224 -25.19138406953366
ltibia 47.96429504751781
lfoot -10.486082403959852 -2.958388865053502
ltoes -2.0510678138097136
rfemur -28.234675941561758 0.7010180647417259 20.47603257563078
rtibia 92.91585439935258
rfoot 7.879389501131477 -8.450710427263889
rtoes 11.394101075371076
lowerback 15.163540193625535 1.0805707716731798 -0.9818682938319343
upperback 0.038200559539181 1.4499159870404554 0.19553605753714542
thorax -9.212291165424302 0.7143386014383677 0.5088283294371968
lowerneck -19.132721975319136 -2.824577584899134 -3.001122300462252
upperneck 16.444011929827063 -3.210335979062147 1.8886756799557123
head 8.134194002357443 -1.4504124827346438 0.9718375523026463
lclavicle -6.499438475405203e-16 -4.862225598526503e-15
lhumerus -42.750735131033196 -15.227890269154965 96.8990417890778
lradius 105.850815904334
lwrist 31.36097344518038
lhand -32.89060855665696 -0.2066494525991098
lfingers 7.125019999999998
lthumb -6.206363621324371 30.269709585199312
rclavicle -6.47702756031542e-16 -4.861744135790611e-15
rhumerus -50.55336070955308 9.484869039843629 -99.72886335422831
rradius 124.36080585843186
rwrist -14.217018290314522
rhand -18.22128883166705 32.97627036152431
rfingers 7.125019999999998
rthumb 8.590151731747644 3.595804329623053
